<svg xmlns="http://www.w3.org/2000/svg" viewBox="0 0 256 256" width="256" height="256">
  <rect width="256" height="256" rx="56" fill="#16181d"/>
  <!-- cuerpo del hat -->
  <rect x="40" y="52" width="176" height="152" rx="18" fill="#23262e" stroke="#3a3f4b" stroke-width="3"/>
  <!-- pantalla 240x240 (cuadrada, como la del ST7789 1.3") -->
  <rect x="58" y="70" width="116" height="116" rx="6" fill="#0f1216" stroke="#4b5566" stroke-width="2"/>
  <!-- QR estilizado en la pantalla -->
  <g fill="#ff9416">
    <rect x="72" y="84" width="24" height="24" rx="3"/>
    <rect x="136" y="84" width="24" height="24" rx="3"/>
    <rect x="72" y="148" width="24" height="24" rx="3"/>
  </g>
  <g fill="#5b6577">
    <rect x="110" y="84" width="10" height="10"/>
    <rect x="110" y="104" width="10" height="10"/>
    <rect x="130" y="120" width="10" height="10"/>
    <rect x="110" y="140" width="10" height="10"/>
    <rect x="150" y="140" width="10" height="10"/>
    <rect x="130" y="160" width="10" height="10"/>
    <rect x="150" y="160" width="10" height="10"/>
  </g>
  <!-- joystick + KEY1/2/3 -->
  <circle cx="192" cy="94" r="13" fill="#39404e"/>
  <circle cx="192" cy="94" r="5" fill="#ff9416"/>
  <g fill="#39404e">
    <rect x="181" y="122" width="22" height="14" rx="4"/>
    <rect x="181" y="146" width="22" height="14" rx="4"/>
    <rect x="181" y="170" width="22" height="14" rx="4"/>
  </g>
</svg>
